<mxfile host="app.diagrams.net" agent="Mozilla/5.0 (Macintosh; Intel Mac OS X 10_15_7) AppleWebKit/605.1.15 (KHTML, like Gecko) Version/17.5 Safari/605.1.15" version="24.7.8">
  <diagram name="Page-1" id="i6nJWEUhXOWo1tigKRqn">
    <mxGraphModel dx="1406" dy="951" grid="1" gridSize="10" guides="1" tooltips="1" connect="1" arrows="1" fold="1" page="1" pageScale="1" pageWidth="827" pageHeight="1169" math="0" shadow="0">
      <root>
        <mxCell id="0" />
        <mxCell id="1" parent="0" />
        <mxCell id="I0mB6BiMpAsgkz6iQy5T-1" value="" style="group" vertex="1" connectable="0" parent="1">
          <mxGeometry x="154" y="443" width="520" height="284" as="geometry" />
        </mxCell>
        <mxCell id="BE2HVgvtTGu_l0hSt5Pd-1" value="Client" style="rounded=0;whiteSpace=wrap;html=1;" parent="I0mB6BiMpAsgkz6iQy5T-1" vertex="1">
          <mxGeometry width="104" height="47.33333333333333" as="geometry" />
        </mxCell>
        <mxCell id="BE2HVgvtTGu_l0hSt5Pd-2" value="VPN SERV" style="rounded=0;whiteSpace=wrap;html=1;" parent="I0mB6BiMpAsgkz6iQy5T-1" vertex="1">
          <mxGeometry x="208" width="104" height="47.33333333333333" as="geometry" />
        </mxCell>
        <mxCell id="BE2HVgvtTGu_l0hSt5Pd-3" value="VPN CA" style="rounded=0;whiteSpace=wrap;html=1;" parent="I0mB6BiMpAsgkz6iQy5T-1" vertex="1">
          <mxGeometry x="208" y="118.33333333333331" width="104" height="47.33333333333333" as="geometry" />
        </mxCell>
        <mxCell id="BE2HVgvtTGu_l0hSt5Pd-4" value="VPN ALERT" style="rounded=0;whiteSpace=wrap;html=1;" parent="I0mB6BiMpAsgkz6iQy5T-1" vertex="1">
          <mxGeometry x="208" y="236.66666666666663" width="104" height="47.33333333333333" as="geometry" />
        </mxCell>
        <mxCell id="BE2HVgvtTGu_l0hSt5Pd-5" value="" style="endArrow=classic;html=1;rounded=0;exitX=1;exitY=0.5;exitDx=0;exitDy=0;" parent="I0mB6BiMpAsgkz6iQy5T-1" source="BE2HVgvtTGu_l0hSt5Pd-1" edge="1">
          <mxGeometry relative="1" as="geometry">
            <mxPoint x="156" y="23.264333333333294" as="sourcePoint" />
            <mxPoint x="208" y="23.666666666666664" as="targetPoint" />
          </mxGeometry>
        </mxCell>
        <mxCell id="BE2HVgvtTGu_l0hSt5Pd-6" value="UDP 1194" style="edgeLabel;resizable=0;html=1;;align=center;verticalAlign=middle;fontSize=10;" parent="BE2HVgvtTGu_l0hSt5Pd-5" connectable="0" vertex="1">
          <mxGeometry relative="1" as="geometry" />
        </mxCell>
        <mxCell id="BE2HVgvtTGu_l0hSt5Pd-11" value="" style="endArrow=classic;html=1;rounded=0;edgeStyle=orthogonalEdgeStyle;entryX=0.25;entryY=1;entryDx=0;entryDy=0;startArrow=classic;startFill=1;" parent="I0mB6BiMpAsgkz6iQy5T-1" target="BE2HVgvtTGu_l0hSt5Pd-2" edge="1">
          <mxGeometry relative="1" as="geometry">
            <mxPoint x="234.00000000000003" y="236.66666666666663" as="sourcePoint" />
            <mxPoint x="260" y="47.33333333333333" as="targetPoint" />
            <Array as="points">
              <mxPoint x="234.00000000000003" y="201.16666666666666" />
              <mxPoint x="169" y="201.16666666666666" />
              <mxPoint x="169" y="82.83333333333331" />
              <mxPoint x="234.00000000000003" y="82.83333333333331" />
            </Array>
          </mxGeometry>
        </mxCell>
        <mxCell id="BE2HVgvtTGu_l0hSt5Pd-12" value="TCP 9090" style="edgeLabel;resizable=0;html=1;;align=center;verticalAlign=middle;fontSize=10;" parent="BE2HVgvtTGu_l0hSt5Pd-11" connectable="0" vertex="1">
          <mxGeometry relative="1" as="geometry">
            <mxPoint as="offset" />
          </mxGeometry>
        </mxCell>
        <mxCell id="BE2HVgvtTGu_l0hSt5Pd-16" value="" style="endArrow=classic;html=1;rounded=0;exitX=0.5;exitY=1;exitDx=0;exitDy=0;endFill=1;startArrow=classic;startFill=1;" parent="I0mB6BiMpAsgkz6iQy5T-1" edge="1">
          <mxGeometry relative="1" as="geometry">
            <mxPoint x="286" y="165.66666666666674" as="sourcePoint" />
            <mxPoint x="286" y="236.66666666666663" as="targetPoint" />
          </mxGeometry>
        </mxCell>
        <mxCell id="BE2HVgvtTGu_l0hSt5Pd-17" value="TCP 9090" style="edgeLabel;resizable=0;html=1;;align=center;verticalAlign=middle;fontSize=10;" parent="BE2HVgvtTGu_l0hSt5Pd-16" connectable="0" vertex="1">
          <mxGeometry relative="1" as="geometry" />
        </mxCell>
        <mxCell id="BE2HVgvtTGu_l0hSt5Pd-18" value="VPN SERV" style="rounded=0;whiteSpace=wrap;html=1;" parent="I0mB6BiMpAsgkz6iQy5T-1" vertex="1">
          <mxGeometry x="416" width="104" height="47.33333333333333" as="geometry" />
        </mxCell>
        <mxCell id="BE2HVgvtTGu_l0hSt5Pd-19" value="" style="endArrow=classic;html=1;rounded=0;exitX=1;exitY=0.5;exitDx=0;exitDy=0;" parent="I0mB6BiMpAsgkz6iQy5T-1" edge="1">
          <mxGeometry relative="1" as="geometry">
            <mxPoint x="312" y="23.394499999999976" as="sourcePoint" />
            <mxPoint x="416" y="23.394499999999976" as="targetPoint" />
          </mxGeometry>
        </mxCell>
        <mxCell id="BE2HVgvtTGu_l0hSt5Pd-20" value="TCP 80&lt;div&gt;TCP 443&lt;/div&gt;" style="edgeLabel;resizable=0;html=1;;align=center;verticalAlign=middle;fontSize=10;" parent="BE2HVgvtTGu_l0hSt5Pd-19" connectable="0" vertex="1">
          <mxGeometry relative="1" as="geometry" />
        </mxCell>
      </root>
    </mxGraphModel>
  </diagram>
</mxfile>
